<svg xmlns="http://www.w3.org/2000/svg" viewBox="0 0 512 512"><path d="M256 512c-7.1 0-13.6-1.9-19.8-5.2l-62.6-37.2c-9.4-5.2-4.7-7.1-1.9-8 12.7-4.2 15.1-5.2 28.2-12.7 1.4-.9 3.3-.5 4.7.5l48 28.7c1.9.9 4.2.9 5.6 0L446 369.5c1.9-.9 2.8-2.8 2.8-5.2V147.5c0-2.4-.9-4.2-2.8-5.2L258.4 34.1c-1.9-.9-4.2-.9-5.6 0L65 142.3c-1.9.9-2.8 3.3-2.8 5.2v216.8c0 1.9.9 4.2 2.8 5.2l51.3 29.6c27.8 14.1 45.2-2.4 45.2-18.8v-214c0-2.8 2.4-5.6 5.6-5.6h24c2.8 0 5.6 2.4 5.6 5.6v214c0 37.2-20.2 58.8-55.5 58.8-10.8 0-19.3 0-43.3-11.8l-49.4-28.2c-12.2-7.1-19.8-20.2-19.8-34.3V147.9c0-14.1 7.5-27.3 19.8-34.3L236.2 4.9c11.8-6.6 27.8-6.6 39.5 0l187.7 108.7c12.2 7.1 19.8 20.2 19.8 34.3v216.8c0 14.1-7.5 27.3-19.8 34.3L275.8 507.8c-6.2 2.8-13.2 4.2-19.8 4.2zm57.9-149.1c-82.3 0-99.2-37.6-99.2-69.6 0-2.8 2.4-5.6 5.6-5.6h24.5c2.8 0 5.2 1.9 5.2 4.7 3.8 24.9 14.6 37.2 64.4 37.2 39.5 0 56.4-8.9 56.4-30.1 0-12.2-4.7-21.2-66.3-27.3-51.3-5.2-83.3-16.5-83.3-57.4 0-38.1 32-60.7 85.6-60.7 60.2 0 89.8 20.7 93.6 65.9 0 1.4-.5 2.8-1.4 4.2-.9.9-2.4 1.9-3.8 1.9h-24.5c-2.4 0-4.7-1.9-5.2-4.2-5.6-25.9-20.2-34.3-58.8-34.3-43.3 0-48.4 15.1-48.4 26.3 0 13.6 6.1 17.9 64.4 25.4 57.9 7.5 85.1 18.3 85.1 58.8-.3 41.3-34.2 64.8-93.9 64.8z" fill="#888"/></svg>