<svg viewBox="0 0 512 512" xmlns="http://www.w3.org/2000/svg"><path d="M254.2 1.3c-130 0-121.9 56.4-121.9 56.4l.1 58.4h124v17.5H83.2S0 124.2 0 255.3s72.6 126.5 72.6 126.5h43.3V321s-2.3-72.6 71.4-72.6h123s69.1 1.1 69.1-66.8V69.3c.1 0 10.6-68-125.2-68zm-68.4 39.3c12.3 0 22.3 10 22.3 22.3s-10 22.3-22.3 22.3-22.3-10-22.3-22.3c-.1-12.3 9.9-22.3 22.3-22.3z" fill="#aaa"/><path d="M257.8 510.7c130 0 121.9-56.4 121.9-56.4l-.1-58.4h-124v-17.5h173.3s83.2 9.4 83.2-121.7-72.6-126.5-72.6-126.5h-43.3V191s2.3 72.6-71.4 72.6h-123s-69.1-1.1-69.1 66.8v112.3c-.2 0-10.7 68 125.1 68zm68.4-39.3c-12.3 0-22.3-10-22.3-22.3s10-22.3 22.3-22.3 22.3 10 22.3 22.3c.1 12.3-9.9 22.3-22.3 22.3z" fill="#888"/></svg>