<svg xmlns="http://www.w3.org/2000/svg" viewBox="0 0 512 512"><path d="M421 175.9c-5.3-1.8-10.8-3.6-16.5-5.2.9-3.8 1.8-7.6 2.5-11.2 12.5-60.6 4.3-109.4-23.5-125.4-26.7-15.4-70.4.7-114.5 39.1-4.2 3.7-8.5 7.6-12.7 11.7-2.8-2.7-5.7-5.3-8.5-7.8-46.2-41.1-92.6-58.4-120.4-42.2C100.7 50.1 92.8 96 104 153.4c1.1 5.5 2.4 11.2 3.8 17-6.6 1.9-12.9 3.8-18.9 6C34.6 195.2 0 224.8 0 255.6c0 31.7 37.2 63.6 93.6 82.9 4.5 1.5 9.1 3 13.8 4.3-1.5 6.2-2.9 12.3-4 18.3-10.7 56.4-2.3 101.2 24.3 116.5 27.5 15.9 73.6-.4 118.5-39.7 3.5-3.1 7.1-6.4 10.7-9.8 4.6 4.5 9.2 8.7 13.8 12.6 43.5 37.4 86.5 52.6 113.1 37.2 27.5-15.9 36.4-64 24.8-122.5-.9-4.5-1.9-9-3.1-13.7 3.2-1 6.4-1.9 9.5-3 58.7-19.4 96.9-50.9 96.9-83 .1-31-35.6-60.8-90.9-79.8zm-12.8 141.9c-2.8.9-5.7 1.8-8.6 2.7-6.5-20.5-15.2-42.3-25.9-64.9 10.2-22 18.6-43.5 24.9-63.9 5.2 1.5 10.3 3.1 15.2 4.8 47.4 16.3 76.3 40.4 76.3 59 0 19.9-31.2 45.6-81.9 62.3zm-21 41.7c5.1 25.9 5.9 49.3 2.5 67.6-3 16.4-9.2 27.4-16.8 31.8-16.1 9.3-50.6-2.8-87.9-34.8-4.3-3.7-8.6-7.6-12.9-11.7 14.4-15.8 28.8-34.1 42.9-54.5 24.8-2.2 48.1-5.8 69.3-10.7 1.2 4.1 2.1 8.3 2.9 12.3zm-212.6 97.8c-15.8 5.6-28.3 5.7-35.9 1.4-16.2-9.3-22.9-45.3-13.7-93.5 1-5.5 2.3-11.2 3.7-17 21 4.6 44.2 8 69 10 14.2 19.9 29 38.3 44 54.3-3.3 3.2-6.5 6.2-9.8 9-19.9 17.2-39.8 29.6-57.3 35.8zm-73.9-139.6c-25-8.5-45.6-19.6-59.7-31.7-12.7-10.9-19.1-21.7-19.1-30.4 0-18.6 27.8-42.4 74.2-58.6 5.6-2 11.5-3.8 17.6-5.5 6.4 20.8 14.8 42.6 25 64.7-10.3 22.4-18.8 44.5-25.3 65.6-4.4-1.4-8.6-2.7-12.7-4.1zm24.8-168.5c-9.6-49.2-3.2-86.3 12.8-95.6 17.1-9.9 55 4.2 94.9 39.7 2.6 2.3 5.1 4.6 7.7 7.1-14.9 16-29.6 34.2-43.6 54-24.1 2.2-47.1 5.8-68.3 10.6-1.4-5.4-2.5-10.6-3.5-15.8zm220.8 54.5c-5.1-8.8-10.3-17.3-15.6-25.6 16.3 2.1 32 4.8 46.7 8.2-4.4 14.1-9.9 28.9-16.4 44.1-4.6-8.8-9.5-17.7-14.7-26.7zM256.2 116c10.1 10.9 20.2 23.1 30.1 36.4-10-.5-20.2-.7-30.4-.7-10.1 0-20.2.2-30.1.7 10-13.1 20.2-25.3 30.4-36.4zm-90.6 87.9c-5.1 8.8-9.9 17.6-14.5 26.5-6.4-15.1-11.8-30-16.3-44.3 14.6-3.3 30.2-5.9 46.4-8-5.3 8.4-10.5 17-15.6 25.8zm16.2 130.7c-16.8-1.9-32.6-4.4-47.2-7.6 4.5-14.6 10.1-29.8 16.6-45.2 4.6 8.9 9.4 17.7 14.5 26.5 5.2 9 10.6 17.7 16.1 26.3zm75 62.1c-10.4-11.2-20.7-23.6-30.8-36.9 9.8.4 19.8.6 30 .6 10.4 0 20.8-.2 30.9-.7-10 13.5-20 25.9-30.1 37zM361.2 281c6.8 15.6 12.6 30.7 17.2 45-14.8 3.4-30.9 6.1-47.8 8.1 5.3-8.4 10.6-17.1 15.7-26.1 5.3-8.9 10.3-17.9 14.9-27zm-33.8 16.2c-8 13.9-16.2 27.1-24.6 39.6-15.2 1.1-30.9 1.6-46.9 1.6-15.9 0-31.4-.5-46.4-1.5-8.7-12.7-17.1-26-25-39.7-7.9-13.7-15.2-27.5-21.8-41.3 6.6-13.8 13.9-27.6 21.8-41.3 7.9-13.7 16.2-26.9 24.8-39.5 15.2-1.2 30.8-1.8 46.6-1.8 15.9 0 31.5.6 46.7 1.8 8.5 12.5 16.7 25.7 24.7 39.4 8 13.9 15.4 27.6 22.1 41.1-6.6 13.9-14 27.8-22 41.6zM372.6 53c17.1 9.9 23.8 49.8 13 102.1-.7 3.3-1.5 6.7-2.3 10.2-21.2-4.9-44.3-8.5-68.5-10.8-14.1-20-28.6-38.2-43.3-54 3.9-3.8 7.9-7.4 11.8-10.8 37.8-33 73.2-46 89.3-36.7zM256 209.8c25.3 0 45.7 20.5 45.7 45.7 0 25.3-20.5 45.7-45.7 45.7s-45.7-20.5-45.7-45.7c0-25.2 20.5-45.7 45.7-45.7z" fill="#888"/></svg>